<?xml version="1.0" encoding="utf-8"?>
<!-- Generator: Adobe Illustrator 26.2.1, SVG Export Plug-In . SVG Version: 6.00 Build 0)  -->
<svg version="1.1" id="레이어_1" xmlns="http://www.w3.org/2000/svg" xmlns:xlink="http://www.w3.org/1999/xlink" x="0px"
	 y="0px" viewBox="0 0 30.36 28.43" style="enable-background:new 0 0 30.36 28.43;" xml:space="preserve">
<style type="text/css">
	.st0{fill:#636A52;}
</style>
<path class="st0" d="M15.18,26.73l-10.92-6.3v-6.94l10.92-6.34l7.59,4.41l-2.93,1.68l-4.27-2.37c-0.25-0.14-0.55-0.13-0.8,0.01
	L5.6,16.2c-0.24,0.14-0.39,0.4-0.39,0.68l0,0c0,0.28,0.15,0.54,0.39,0.68l9.17,5.33c0.12,0.07,0.26,0.11,0.4,0.11
	s0.28-0.04,0.4-0.11l10.52-6.11v3.72L15.18,26.73z M12.1,14.26l3.1-1.8l3.07,1.7l-3.1,1.8L12.1,14.26z M15.18,1.7L26.1,8v6.94
	l-10.92,6.34l-7.59-4.41l2.93-1.69l4.27,2.37c0.24,0.14,0.55,0.13,0.79-0.01l9.17-5.32c0.24-0.14,0.39-0.4,0.39-0.68l0,0l0,0
	c0-0.28-0.15-0.54-0.39-0.68l-9.17-5.33c-0.25-0.14-0.55-0.14-0.8,0L4.26,11.64V7.93L15.18,1.7z M27.29,6.87L15.58,0.11
	c-0.25-0.14-0.55-0.14-0.79,0L3.07,6.79c-0.25,0.14-0.4,0.4-0.4,0.69v5.55l0,0v7.85c0,0.28,0.15,0.54,0.4,0.68l11.71,6.76
	c0.12,0.07,0.26,0.11,0.4,0.11s0.27-0.04,0.4-0.1l11.71-6.69c0.25-0.14,0.4-0.4,0.4-0.68V15.4l0,0V7.55
	C27.69,7.27,27.54,7.01,27.29,6.87"/>
</svg>
