<?xml version="1.0" encoding="utf-8"?>
<!-- Generator: Adobe Illustrator 25.3.1, SVG Export Plug-In . SVG Version: 6.00 Build 0)  -->
<svg version="1.1" id="Layer_1" xmlns="http://www.w3.org/2000/svg" xmlns:xlink="http://www.w3.org/1999/xlink" x="0px" y="0px"
	 viewBox="0 0 25.9 29.4" style="enable-background:new 0 0 25.9 29.4;" xml:space="preserve">
<style>
	.opacity{
		opacity:0.06;
	}
</style>
<path class="opacity" d="M12.9,27.2L2,20.9V14l10.9-6.3l7.6,4.4l-2.9,1.7l-4.3-2.4c-0.2-0.1-0.6-0.1-0.8,0l-9.2,5.3C3.1,16.8,3,17.1,3,17.4l0,0
	c0,0.3,0.2,0.5,0.4,0.7l9.2,5.3c0.1,0.1,0.3,0.1,0.4,0.1s0.3,0,0.4-0.1l10.5-6.1V21L12.9,27.2z M9.9,14.8L13,13l3.1,1.7l-3.1,1.8
	L9.9,14.8z M12.9,2.2l10.9,6.3v6.9l-10.9,6.3l-7.6-4.4l2.9-1.7l4.3,2.4c0.2,0.1,0.6,0.1,0.8,0l9.2-5.3c0.2-0.1,0.4-0.4,0.4-0.7l0,0
	l0,0c0-0.3-0.1-0.5-0.4-0.7L13.3,6c-0.2-0.1-0.6-0.1-0.8,0L2,12.1V8.4L12.9,2.2z M25.1,7.4L13.3,0.6c-0.2-0.1-0.6-0.1-0.8,0L0.8,7.3
	C0.6,7.4,0.4,7.7,0.4,8v5.6l0,0v7.9c0,0.3,0.2,0.5,0.4,0.7l11.7,6.8c0.1,0.1,0.3,0.1,0.4,0.1s0.3,0,0.4-0.1l11.7-6.7
	c0.2-0.1,0.4-0.4,0.4-0.7v-5.6l0,0V8C25.5,7.8,25.3,7.5,25.1,7.4"/>
</svg>
