<svg xmlns="http://www.w3.org/2000/svg" viewBox="0 0 24.66 24.66"><defs><style>.cls-1{fill:#fff;}</style></defs><g id="Layer_2" data-name="Layer 2"><g id="Layer_1-2" data-name="Layer 1"><path class="cls-1" d="M19.49,0H5.18A5.18,5.18,0,0,0,0,5.18V19.49a5.18,5.18,0,0,0,5.18,5.17H19.49a5.19,5.19,0,0,0,5.17-5.17V5.18A5.18,5.18,0,0,0,19.49,0ZM12.35,18.64h0a6.31,6.31,0,1,1,6.31-6.31A6.32,6.32,0,0,1,12.33,18.64ZM19,7.26a1.18,1.18,0,0,1-.22-2.35H19a1.18,1.18,0,0,1,0,2.35Z"/><circle class="cls-1" cx="12.33" cy="12.33" r="4.74"/></g></g></svg>