<svg xmlns="http://www.w3.org/2000/svg" viewBox="0 0 306.85 28.43"><defs><style>.cls-1{fill:#black;}</style></defs><g id="Layer_2" data-name="Layer 2"><g id="Layer_1-2" data-name="Layer 1"><path class="cls-1" d="M12.51,26.72,1.59,20.43V13.49L12.51,7.14l7.59,4.41-2.93,1.69L12.9,10.87a.79.79,0,0,0-.8,0L2.93,16.2a.79.79,0,0,0-.39.68h0a.79.79,0,0,0,.39.68l9.17,5.33a.78.78,0,0,0,.8,0l10.52-6.11V20.5ZM9.43,14.26l3.1-1.8,3.07,1.7L12.5,16ZM12.51,1.7,23.43,8v6.94L12.51,21.28,4.92,16.87l2.93-1.69,4.27,2.36a.8.8,0,0,0,.79,0l9.17-5.32a.78.78,0,0,0,.39-.68h0a.79.79,0,0,0-.39-.68L12.91,5.52a.81.81,0,0,0-.8,0L1.59,11.63V7.93ZM24.62,6.87,12.91.11a.75.75,0,0,0-.79,0L.4,6.79a.78.78,0,0,0-.4.69V13H0v7.85a.78.78,0,0,0,.4.68l11.71,6.76a.8.8,0,0,0,.4.11,1,1,0,0,0,.4-.1l11.71-6.69A.78.78,0,0,0,25,21V15.39h0V7.55a.78.78,0,0,0-.4-.68"/><path class="cls-1" d="M45.5,15.31V5.91h1.66v10c0,4.54-2.29,6.63-6.16,6.63s-6.16-2.09-6.16-6.63v-10H36.5v9.4c0,4.06,1.49,5.79,4.5,5.79s4.5-1.73,4.5-5.79m13.13-8c2.69,0,4,1.16,4,3.06v.23c0,2-1.25,3.16-4.26,3.16h-3.8V7.34Zm4.25,14.94h1.81L61.2,14.86a4.31,4.31,0,0,0,3.13-4.15v-.35c0-2.57-2-4.45-5.46-4.45h-6V22.28h1.68V15.22h4.33c.22,0,.43,0,.65,0Zm8.61-7.88h3.94c3.46,0,4.52,1,4.52,3v.5c0,1.93-1.27,2.93-4,2.93H71.49Zm3.75-7.11c2.72,0,3.94.7,3.94,2.63v.41c0,2-1.37,2.72-3.78,2.72H71.48V7.28h3.76Zm-5.41,15h6.28c3.75,0,5.56-1.63,5.56-4.31V17.4c0-2.27-1.47-3.45-3.58-3.75a3.2,3.2,0,0,0,2.79-3.27V9.9c0-2.68-1.83-4-5.51-4H69.84V22.28Zm21.09-10.9c.43-1.11.77-1.93,1.42-4.06.7,2.13,1,2.95,1.44,4.06l1.68,4.43H89.18Zm2.39-5.47h-1.9L85,22.28h1.73l2-5.09H96l1.92,5.09h1.8Zm10.74,16.37h1.61V8a12.19,12.19,0,0,0,.79,1.48l8,12.85h2V5.91h-1.61V20.23a15.12,15.12,0,0,0-.82-1.52l-8-12.8h-2Zm26-16.37V22.28h10.37V20.87h-8.68v-15Zm19.14,5.47c.43-1.11.77-1.93,1.42-4.06.7,2.13,1,2.95,1.44,4.06l1.68,4.43h-6.28Zm2.39-5.47h-1.9l-6.45,16.37H145l2-5.09h7.34l1.92,5.09H158Zm21.33,9.4c0,4.06-1.49,5.79-4.5,5.79s-4.5-1.73-4.5-5.79V5.91h-1.66v10c0,4.54,2.26,6.63,6.16,6.63s6.16-2.09,6.16-6.63v-10h-1.66v9.4m7.38,7h1.61V8a13.9,13.9,0,0,0,.78,1.48l8,12.85h2V5.91h-1.61V20.23a13.2,13.2,0,0,0-.83-1.52l-8-12.8h-2V22.28Zm19.86-15h3.75c3.1,0,5.32,1.82,5.32,5.72v2.11c0,3.91-2.21,5.72-5.32,5.72h-3.75Zm-1.68-1.41V22.28h5.41c4.38,0,7-2.5,7-7V12.93c0-4.52-2.65-7-7-7h-5.41Zm17.87,0V22.28H227V20.87H218V14.58h8.25V13.17H218V7.31h8.75V5.9H216.34ZM238,7.34c2.69,0,4,1.16,4,3.06v.23c0,2-1.25,3.16-4.26,3.16H234V7.34Zm4.26,14.94h1.8l-3.49-7.42a4.31,4.31,0,0,0,3.13-4.15v-.35c0-2.57-2-4.45-5.47-4.45h-6V22.28H234V15.22h4.33c.22,0,.43,0,.65,0Zm7-16.37V22.28h10.6V20.87h-8.92V14.58h8.25V13.17h-8.25V7.31h8.76V5.9H249.24Zm14.43,0V7.32h5.53v15h1.68v-15h5.55V5.91Zm15.53,0V7.32h5.53v15h1.67v-15H292V5.91Zm17.05,0V22.28h10.6V20.87h-8.92V14.58h8.25V13.17h-8.25V7.31h8.75V5.9H296.25Z"/></g></g></svg>